<mxfile host="app.diagrams.net" modified="2023-05-06T11:58:34.529Z" agent="Mozilla/5.0 (Windows NT 10.0; Win64; x64) AppleWebKit/537.36 (KHTML, like Gecko) Chrome/113.0.0.0 Safari/537.36" version="21.2.9" etag="C5RBQEmGuf1y2f3Rb-ju" type="github">
  <diagram name="PÃ¡gina-1" id="bePXWYbdEq6SaWsoyi-n">
    <mxGraphModel>
      <root>
        <mxCell id="0" />
        <mxCell id="1" parent="0" />
      </root>
    </mxGraphModel>
  </diagram>
</mxfile>
